HIERARCHY
ROOT joint_Root
{
	OFFSET 0.0 0.0 0.0
	CHANNELS 6 Xposition Yposition Zposition Zrotation Xrotation Yrotation 
	JOINT Hips
	{
		OFFSET -17.1583 93.1646 452.98
		CHANNELS 6 Xposition Yposition Zposition Zrotation Xrotation Yrotation 
		JOINT Spine
		{
			OFFSET 15.7357 0.0 0.0
			CHANNELS 6 Xposition Yposition Zposition Zrotation Xrotation Yrotation 
			JOINT Chest
			{
				OFFSET 8.98455 -0.406207 0.0
				CHANNELS 6 Xposition Yposition Zposition Zrotation Xrotation Yrotation 
				JOINT Neck
				{
					OFFSET 16.3773 0.0 0.0
					CHANNELS 6 Xposition Yposition Zposition Zrotation Xrotation Yrotation 
					JOINT Head
					{
						OFFSET 6.45672 0.0 0.0
						CHANNELS 6 Xposition Yposition Zposition Zrotation Xrotation Yrotation 
						End Site
						{
							OFFSET 0.0 0.0 0.0
						}
					}
				}
				JOINT Shoulder_L
				{
					OFFSET 12.9942 -0.242716 4.98039
					CHANNELS 6 Xposition Yposition Zposition Zrotation Xrotation Yrotation 
					JOINT UpperArm_L
					{
						OFFSET 5.34809 0.0 0.0
						CHANNELS 6 Xposition Yposition Zposition Zrotation Xrotation Yrotation 
						JOINT LowerArm_L
						{
							OFFSET 24.3286 1.87007e-05 0.0
							CHANNELS 6 Xposition Yposition Zposition Zrotation Xrotation Yrotation 
							JOINT Hand_L
							{
								OFFSET 22.2916 0.0 0.0
								CHANNELS 6 Xposition Yposition Zposition Zrotation Xrotation Yrotation 
								End Site
								{
									OFFSET 0.0 0.0 0.0
								}
							}
						}
					}
				}
				JOINT Shoulder_R
				{
					OFFSET 12.9945 -0.242716 -4.98039
					CHANNELS 6 Xposition Yposition Zposition Zrotation Xrotation Yrotation 
					JOINT UpperArm_R
					{
						OFFSET -5.34813 0.0 0.0
						CHANNELS 6 Xposition Yposition Zposition Zrotation Xrotation Yrotation 
						JOINT LowerArm_R
						{
							OFFSET -24.3289 0.000322201 0.0
							CHANNELS 6 Xposition Yposition Zposition Zrotation Xrotation Yrotation 
							JOINT Hand_R
							{
								OFFSET -22.2915 -0.000108084 0.0
								CHANNELS 6 Xposition Yposition Zposition Zrotation Xrotation Yrotation 
								End Site
								{
									OFFSET 0.0 0.0 0.0
								}
							}
						}
					}
				}
			}
		}
		JOINT UpperLeg_L
		{
			OFFSET -2.19248 -6.46944 0.0
			CHANNELS 6 Xposition Yposition Zposition Zrotation Xrotation Yrotation 
			JOINT LowerLeg_L
			{
				OFFSET 39.0811 0.0 -1.23785e-05
				CHANNELS 6 Xposition Yposition Zposition Zrotation Xrotation Yrotation 
				JOINT Foot_L
				{
					OFFSET 40.9854 0.0 -1.26872e-05
					CHANNELS 6 Xposition Yposition Zposition Zrotation Xrotation Yrotation 
					JOINT Toes_L
					{
						OFFSET 11.7543 0.0 0.0
						CHANNELS 6 Xposition Yposition Zposition Zrotation Xrotation Yrotation 
						End Site
						{
							OFFSET 0.0 0.0 0.0
						}
					}
				}
			}
		}
		JOINT UpperLeg_R
		{
			OFFSET -2.19251 6.46944 0.0
			CHANNELS 6 Xposition Yposition Zposition Zrotation Xrotation Yrotation 
			JOINT LowerLeg_R
			{
				OFFSET -39.0811 -0.00228153 -0.0401928
				CHANNELS 6 Xposition Yposition Zposition Zrotation Xrotation Yrotation 
				JOINT Foot_R
				{
					OFFSET -40.9854 0.0 0.0
					CHANNELS 6 Xposition Yposition Zposition Zrotation Xrotation Yrotation 
					JOINT Toes_R
					{
						OFFSET -11.7543 0.0 0.0
						CHANNELS 6 Xposition Yposition Zposition Zrotation Xrotation Yrotation 
						End Site
						{
							OFFSET 0.0 0.0 0.0
						}
					}
				}
			}
		}
	}
}
MOTION
Frames:	4
Frame Time:	0.0333333
0.000000 0.000000 0.000000 0.000000 0.000000 -0.000000 -0.996891 92.635800 3.927260 89.128200 -1.060180 1.697720 15.735700 0.000005 -0.000001 78.347400 87.568000 -69.475000 8.984550 -0.406207 -0.000000 -2.801530 -1.796810 17.704000 16.377300 -0.000001 -0.000001 1.258550 4.526580 5.308950 6.456720 -0.000001 -0.000000 1.080200 5.755970 17.277500 12.994200 -0.242716 4.980390 -87.418400 -5.244170 -63.742500 5.348090 -0.000007 -0.000001 -35.660600 -58.149900 -75.844400 24.328600 0.000019 0.000005 2.568080 28.026100 -5.452500 22.291600 -0.000001 0.000005 46.162700 4.393580 18.325400 12.994500 -0.242716 -4.980390 89.197700 2.703840 -73.465900 -5.348130 -0.000001 -0.000004 -61.123700 3.366610 -0.929937 -24.328900 0.000322 -0.000009 1.788100 7.623300 -13.249700 -22.291500 -0.000108 -0.000004 7.257830 5.242350 1.634120 -2.192480 -6.469440 -0.000000 -173.367000 -11.575200 4.242680 39.081100 -0.000007 -0.000012 0.032255 -0.135886 13.353300 40.985400 -0.000006 -0.000013 -0.332158 16.353800 -70.341400 11.754300 -0.000000 0.000003 -0.001197 0.185792 -9.039960 -2.192510 6.469440 -0.000001 176.970000 2.315900 -176.049000 -39.081100 -0.002282 -0.040193 0.042357 -0.169052 12.998300 -40.985400 0.000008 0.000006 -4.097850 3.163590 -70.786000 -11.754300 -0.000006 -0.000006 -0.012834 0.291383 -4.728970
0.000000 0.000000 0.000000 0.000000 0.000000 -0.000000 -0.970173 92.640900 3.890040 89.130400 -1.055340 1.707560 15.735700 0.000005 -0.000001 78.737500 87.563800 -69.869400 8.984550 -0.406207 -0.000000 -2.789330 -1.764670 17.696400 16.377300 -0.000001 -0.000001 1.245310 4.490750 5.320880 6.456720 -0.000001 -0.000000 1.133860 5.720470 17.163400 12.994200 -0.242716 4.980390 -87.437800 -5.205700 -63.747000 5.348090 -0.000007 -0.000001 -35.574300 -58.120500 -75.733600 24.328600 0.000019 0.000005 2.481730 28.008600 -5.272990 22.291600 -0.000001 0.000005 46.103500 4.396620 18.277100 12.994500 -0.242716 -4.980390 89.204000 2.684410 -73.477300 -5.348130 -0.000001 -0.000004 -61.227600 3.430930 -0.919180 -24.328900 0.000322 -0.000009 1.789790 7.613960 -13.277500 -22.291500 -0.000108 -0.000004 7.261300 5.240220 1.689720 -2.192480 -6.469440 -0.000000 -173.385000 -11.594100 4.208840 39.081100 -0.000007 -0.000012 0.031473 -0.132300 13.381800 40.985400 -0.000006 -0.000013 -0.316282 16.353400 -70.328100 11.754300 -0.000000 0.000003 -0.001346 0.187834 -8.956940 -2.192510 6.469440 -0.000001 176.955000 2.251850 -176.051000 -39.081100 -0.002282 -0.040193 0.042050 -0.167950 12.981300 -40.985400 0.000008 0.000006 -4.139010 3.135980 -70.779400 -11.754300 -0.000006 -0.000006 -0.013022 0.292645 -4.677240
0.000000 0.000000 0.000000 0.000000 0.000000 -0.000000 -0.942057 92.649900 3.861260 89.145600 -1.045300 1.702490 15.735700 0.000005 -0.000001 78.590800 87.548300 -69.731500 8.984550 -0.406207 -0.000000 -2.760480 -1.779990 17.678600 16.377300 -0.000001 -0.000001 1.292270 4.481180 5.303580 6.456720 -0.000001 -0.000000 1.109950 5.684790 17.092000 12.994200 -0.242716 4.980390 -87.450200 -5.180060 -63.746300 5.348090 -0.000007 -0.000001 -35.521300 -58.192600 -75.578600 24.328600 0.000019 0.000005 2.433380 27.941600 -5.182020 22.291600 -0.000001 0.000005 46.047200 4.396990 18.271200 12.994500 -0.242716 -4.980390 89.201900 2.696940 -73.509000 -5.348130 -0.000001 -0.000004 -61.312100 3.520090 -0.982362 -24.328900 0.000322 -0.000009 1.757230 7.467330 -13.289900 -22.291500 -0.000108 -0.000004 7.245130 5.240080 1.693580 -2.192480 -6.469440 -0.000000 -173.422000 -11.593700 4.217220 39.081100 -0.000007 -0.000012 0.031538 -0.133224 13.318800 40.985400 -0.000006 -0.000013 -0.300317 16.380600 -70.291200 11.754300 -0.000000 0.000003 -0.001299 0.187196 -8.982860 -2.192510 6.469440 -0.000001 176.906000 2.308650 -176.077000 -39.081100 -0.002282 -0.040193 0.041103 -0.164051 12.965300 -40.985400 0.000008 0.000006 -4.231180 3.197980 -70.710200 -11.754300 -0.000006 -0.000006 -0.012879 0.291685 -4.716580
0.000000 0.000000 0.000000 0.000000 0.000000 -0.000000 -0.933264 92.652300 3.814810 89.126700 -1.042210 1.674240 15.735700 0.000005 -0.000001 78.875800 87.550300 -70.018400 8.984550 -0.406207 -0.000000 -2.761620 -1.755230 17.675300 16.377300 -0.000001 -0.000001 1.303370 4.424070 5.322890 6.456720 -0.000001 -0.000000 1.143550 5.597370 16.963500 12.994200 -0.242716 4.980390 -87.462200 -5.165640 -63.790100 5.348090 -0.000007 -0.000001 -35.545800 -58.275700 -75.474700 24.328600 0.000019 0.000005 2.436350 27.941100 -5.188400 22.291600 -0.000001 0.000005 46.037300 4.392390 18.344300 12.994500 -0.242716 -4.980390 89.205300 2.680670 -73.480900 -5.348130 -0.000001 -0.000004 -61.423200 3.556340 -1.021670 -24.328900 0.000322 -0.000009 1.781130 7.514820 -13.382600 -22.291500 -0.000108 -0.000004 7.204150 5.238400 1.737390 -2.192480 -6.469440 -0.000000 -173.423000 -11.598400 4.104290 39.081100 -0.000007 -0.000012 0.031813 -0.133370 13.416500 40.985400 -0.000006 -0.000013 -0.282618 16.378000 -70.309100 11.754300 -0.000000 0.000003 -0.001200 0.185831 -9.038370 -2.192510 6.469440 -0.000001 176.924000 2.311420 -176.129000 -39.081100 -0.002282 -0.040193 0.041409 -0.165376 12.965600 -40.985400 0.000008 0.000006 -4.199440 3.175640 -70.713600 -11.754300 -0.000006 -0.000006 -0.013032 0.292714 -4.674430
